<svg width="256" height="256" viewBox="0 0 256 256" fill="none" xmlns="http://www.w3.org/2000/svg" role="img" aria-label="Aldeia Indica">
  <!-- Versão de 1 cor para fundos claros (tinta azul sereno sobre papel branco) -->
  <!-- Sol -->
  <circle cx="128" cy="78" r="22" fill="#2E5C74" />
  <!-- Silhueta unificada serra + casa (tinta) -->
  <path d="M 8 200 L 74 112 L 128 166 L 182 112 L 248 200 Z" fill="#2E5C74" />
  <path d="M 36 200 L 92 140 L 128 172 L 164 140 L 220 200 Z" fill="#2E5C74" />
  <path d="M 90 150 L 128 116 L 166 150 Z" fill="#2E5C74" />
  <rect x="102" y="150" width="52" height="50" fill="#2E5C74" />
  <!-- Linha do papel separando a serra da frente -->
  <path d="M 36 200 L 92 140 L 128 172 L 164 140 L 220 200" stroke="#FFFFFF" stroke-width="5" fill="none" stroke-linejoin="round" />
  <!-- Contorno da casa (papel) para destacá-la da serra -->
  <path d="M 90 150 L 128 116 L 166 150" stroke="#FFFFFF" stroke-width="6" fill="none" stroke-linejoin="round" stroke-linecap="round" />
  <path d="M 102 152 L 102 200 M 154 152 L 154 200" stroke="#FFFFFF" stroke-width="6" fill="none" stroke-linecap="round" />
  <!-- Óculo e porta (recortes em papel) -->
  <circle cx="128" cy="140" r="6" fill="#FFFFFF" />
  <rect x="119" y="172" width="18" height="28" rx="3" fill="#FFFFFF" />
</svg>
