<svg width="780" height="200" viewBox="0 0 780 200" fill="none" xmlns="http://www.w3.org/2000/svg" role="img" aria-label="Aldeia Indica">
  <!-- Para fundos escuros: ícone colorido + wordmark claro -->
  <svg x="16" y="20" width="160" height="160" viewBox="0 0 256 256">
    <defs>
      <clipPath id="badgeR"><rect x="0" y="0" width="256" height="256" rx="60" /></clipPath>
    </defs>
    <g clip-path="url(#badgeR)">
      <rect x="0" y="0" width="256" height="256" fill="#1B5E20" />
      <circle cx="128" cy="80" r="24" fill="#FFB300" />
      <path d="M 8 200 L 74 112 L 128 166 L 182 112 L 248 200 Z" fill="#2E7D32" />
      <path d="M 36 200 L 92 140 L 128 172 L 164 140 L 220 200 Z" fill="#4CAF50" />
      <path d="M 90 150 L 128 116 L 166 150 Z" fill="#F9FBF9" />
      <rect x="102" y="150" width="52" height="50" fill="#F9FBF9" />
      <circle cx="128" cy="140" r="6" fill="#FFB300" />
      <rect x="119" y="172" width="18" height="28" rx="3" fill="#F57F17" />
    </g>
  </svg>
  <text x="204" y="106" font-family="Poppins, 'Segoe UI', Helvetica, Arial, sans-serif" font-size="66" font-weight="700" letter-spacing="-1">
    <tspan fill="#FFFFFF">Aldeia </tspan><tspan fill="#FFB300">Indica</tspan>
  </text>
  <text x="206" y="146" font-family="Inter, 'Segoe UI', Helvetica, Arial, sans-serif" font-size="23" font-weight="500" fill="#C8E6C9">
    Rede de confiança da sua comunidade
  </text>
</svg>
